<svg xmlns="http://www.w3.org/2000/svg" viewBox="0 0 48 48"><defs><style>.cls-1{fill:#c6512b;}.cls-2{fill:#a83d20;}.cls-3{fill:#e67244;}</style></defs><title>Sofa</title><g id="Sofa"><path class="cls-1" d="M42,32H6a1,1,0,0,1-1-1V14c0-3.776,2.993-8,7-8H36c4.007,0,7,4.224,7,8V31A1,1,0,0,1,42,32Z" id="id_111"></path><circle class="cls-2" cx="15" cy="13" r="1" id="id_112"></circle><circle class="cls-2" cx="24" cy="13" r="1" id="id_113"></circle><circle class="cls-2" cx="15" cy="19" r="1" id="id_114"></circle><circle class="cls-2" cx="24" cy="19" r="1" id="id_115"></circle><circle class="cls-2" cx="33" cy="13" r="1" id="id_116"></circle><circle class="cls-2" cx="33" cy="19" r="1" id="id_117"></circle><path class="cls-1" d="M9,42H7a2,2,0,0,1-2-2V36a1,1,0,0,1,1-1h4a1,1,0,0,1,1,1v4A2,2,0,0,1,9,42Z" id="id_118"></path><path class="cls-1" d="M41,42H39a2,2,0,0,1-2-2V36a1,1,0,0,1,1-1h4a1,1,0,0,1,1,1v4A2,2,0,0,1,41,42Z" id="id_119"></path><path class="cls-3" d="M41,38H7a5.006,5.006,0,0,1-5-5V26.741A5.5,5.5,0,1,1,11,22.5v3.316A81.2,81.2,0,0,1,23,25a123.078,123.078,0,0,1,14,.864V22.5a5.5,5.5,0,1,1,9,4.241V33A5.006,5.006,0,0,1,41,38Z" id="id_120"></path></g></svg>